<?xml version="1.0" standalone="no"?>
<!DOCTYPE svg PUBLIC "-//W3C//DTD SVG 20010904//EN"
 "http://www.w3.org/TR/2001/REC-SVG-20010904/DTD/svg10.dtd">
<svg version="1.0" xmlns="http://www.w3.org/2000/svg"
 width="512.000000pt" height="512.000000pt" viewBox="0 0 512.000000 512.000000"
 preserveAspectRatio="xMidYMid meet">

<g transform="translate(0.000000,512.000000) scale(0.100000,-0.100000)"
fill="#000000" stroke="none">
<path d="M186 5104 c-34 -11 -64 -31 -102 -68 -92 -93 -85 113 -82 -2186 l3
-2025 23 -42 c28 -54 79 -104 126 -127 l38 -18 -96 -98 c-93 -94 -105 -115
-90 -155 9 -23 61 -47 87 -39 12 3 86 70 165 147 l142 141 117 -117 117 -117
-141 -142 c-77 -79 -144 -153 -147 -165 -8 -26 16 -78 39 -87 44 -16 62 -3
242 176 101 100 185 190 188 199 3 9 1 29 -5 44 -10 27 -7 32 46 86 56 57 59
58 101 52 39 -5 46 -2 83 31 l40 36 1023 0 c1143 0 1067 -5 1067 69 0 26 -7
44 -21 57 -20 18 -43 19 -385 22 l-365 3 75 50 c160 106 300 264 388 434 98
191 132 332 132 545 0 200 -30 336 -114 516 l-38 82 80 78 79 79 197 -198
c209 -210 216 -217 246 -217 22 0 432 402 442 433 15 47 -42 105 -90 91 -11
-3 -97 -81 -189 -172 l-168 -167 -192 196 c-106 108 -202 201 -215 208 -12 7
-33 9 -45 6 -12 -4 -243 -227 -512 -496 l-490 -489 -105 105 -105 105 605 605
605 605 200 -200 c183 -182 204 -200 236 -200 31 0 58 24 361 328 265 265 328
333 328 354 0 18 -19 48 -60 95 -33 37 -60 70 -60 73 0 5 633 121 636 117 3
-3 -106 -609 -111 -626 -4 -9 -25 6 -66 43 -94 87 -91 89 -291 -112 -154 -154
-168 -171 -168 -203 0 -44 28 -72 71 -72 26 0 51 20 162 131 l132 131 86 -84
c71 -70 92 -85 118 -85 17 0 39 8 50 19 23 23 20 11 116 544 60 335 72 422 63
442 -23 52 -29 51 -533 -40 -513 -92 -505 -90 -505 -157 0 -25 17 -47 87 -120
l87 -89 -254 -254 -255 -255 -200 200 c-171 171 -205 200 -230 200 -26 0 -67
-37 -295 -264 l-265 -265 -87 43 c-94 47 -184 77 -299 103 -107 23 -347 23
-459 -1 -452 -97 -801 -430 -916 -873 -36 -136 -44 -350 -19 -490 21 -117 55
-223 102 -317 l35 -69 -113 -113 -112 -112 6 -44 c6 -44 5 -46 -51 -101 -57
-56 -59 -57 -91 -46 -28 10 -36 9 -61 -10 -21 -15 -44 -21 -80 -21 -43 0 -55
5 -88 34 l-37 34 -3 1646 -2 1646 309 0 c297 0 309 1 335 21 33 26 36 79 6
109 -19 19 -33 20 -335 20 l-315 0 0 290 c0 322 2 333 63 370 31 20 69 20
2347 20 2278 0 2316 0 2347 -20 61 -37 63 -48 63 -370 l0 -290 -1950 0 c-1937
0 -1950 0 -1970 -20 -30 -30 -27 -83 6 -109 l27 -21 1943 0 1944 0 -2 -1645
-3 -1645 -33 -32 -32 -33 -739 -5 c-709 -5 -740 -6 -760 -24 -14 -13 -21 -31
-21 -57 0 -73 -44 -69 785 -69 l740 0 50 24 c59 27 107 72 138 130 l22 41 3
2025 c3 2298 10 2093 -82 2185 -93 93 151 85 -2480 84 -2033 0 -2327 -2 -2370
-15z m1879 -2289 c55 -14 133 -41 174 -60 l75 -36 -63 -63 -63 -64 -77 28
c-265 97 -570 57 -794 -104 -526 -376 -476 -1158 94 -1465 211 -114 488 -131
709 -44 208 82 383 247 475 447 91 197 103 445 30 645 l-25 66 65 64 64 65 31
-65 c73 -158 104 -384 77 -564 -55 -355 -266 -637 -591 -791 -135 -63 -234
-86 -401 -91 -161 -6 -273 12 -410 66 -255 98 -488 331 -586 586 -54 139 -72
249 -66 415 6 170 26 258 91 396 60 126 115 205 210 299 162 161 368 264 588
295 106 15 281 4 393 -25z m-88 -311 c40 -9 76 -20 79 -26 4 -6 -98 -114 -225
-242 -210 -210 -231 -234 -231 -265 0 -30 18 -52 162 -200 195 -200 185 -191
222 -191 27 0 62 31 263 232 128 128 235 229 239 226 30 -30 46 -275 25 -370
-71 -312 -335 -543 -648 -565 -337 -24 -651 200 -740 527 -27 101 -25 283 5
380 70 223 230 393 444 471 130 48 252 54 405 23z m-1058 -1468 c29 -35 82
-88 117 -117 l64 -53 -62 -63 -63 -63 -117 117 -118 118 62 62 c34 35 63 63
63 63 1 0 25 -29 54 -64z m-169 -291 l65 -65 -63 -62 -62 -63 -67 67 -68 68
60 60 c33 33 62 60 65 60 3 0 35 -29 70 -65z"/>
<path d="M3498 4734 c-80 -43 -75 -170 8 -209 40 -19 68 -19 108 0 60 29 83
103 51 165 -28 55 -109 76 -167 44z"/>
<path d="M3901 4724 c-17 -14 -36 -42 -42 -63 -30 -101 86 -187 178 -131 40
24 54 50 55 102 1 98 -116 155 -191 92z"/>
<path d="M4328 4734 c-53 -28 -73 -105 -43 -164 34 -66 132 -78 187 -23 98 98
-22 254 -144 187z"/>
<path d="M364 3908 c-39 -18 -44 -49 -44 -273 0 -212 0 -214 24 -242 l24 -28
737 0 737 0 24 28 c24 28 24 30 24 242 0 227 -5 255 -47 274 -32 15 -1448 14
-1479 -1z m1374 -265 l-3 -128 -630 0 -630 0 -3 128 -3 127 636 0 636 0 -3
-127z"/>
<path d="M4214 1740 c-26 -10 -54 -48 -54 -71 0 -9 9 -28 21 -43 l20 -26 238
0 c226 0 239 1 256 20 25 28 23 76 -4 103 -21 21 -30 22 -239 24 -119 1 -227
-2 -238 -7z"/>
<path d="M3882 1397 c-27 -29 -28 -67 -3 -98 l19 -24 380 -3 380 -3 28 24 c35
31 38 82 5 109 -22 17 -49 18 -405 18 l-383 0 -21 -23z"/>
<path d="M3885 1075 c-14 -13 -25 -36 -25 -50 0 -14 11 -37 25 -50 l24 -25
375 0 c206 0 382 3 391 6 26 10 45 63 34 93 -20 51 -18 50 -422 51 l-378 0
-24 -25z"/>
</g>
</svg>
